<svg width="207" height="60" viewBox="0 0 207 60" fill="none" xmlns="http://www.w3.org/2000/svg">
<path d="M11.66 59.3406C7.88 59.7006 4.96 58.4206 2.96 55.4106C1.97 53.8106 1.23 51.8906 0.74 49.7206C0.24 47.5406 0 45.1206 0 42.4906C0 39.6706 0 36.9606 0 34.3106C0 31.7806 0 29.2706 0 26.8106C0 24.4006 0 22.0106 0 19.6206C0 17.2606 0 14.9106 0 12.5806C0 8.50061 0.99 5.41061 2.96 3.24061C4.96 1.05061 7.88 -0.0293919 11.66 0.000608108C15.45 0.0306081 18.33 1.20061 20.3 3.50061C21.3 4.66061 22.06 6.06061 22.57 7.69061C23.07 9.33061 23.32 11.2006 23.32 13.3206C23.33 15.2306 23.32 17.1606 23.32 19.0906C20.83 19.0806 18.34 19.0406 15.84 19.0006C15.83 16.8806 15.83 14.7806 15.83 12.7006C15.83 9.35061 14.52 7.66061 11.87 7.63061C9.24 7.55061 7.92 9.17061 7.91 12.4606C7.91 14.9606 7.92 17.4606 7.91 19.9806C7.92 22.5406 7.92 25.1006 7.91 27.7106C7.91 30.3506 7.92 33.0406 7.91 35.7706C7.91 38.5706 7.92 41.4106 7.91 44.3206C7.92 48.2206 9.24 50.2406 11.88 50.2106C14.51 50.1106 15.83 48.1706 15.84 44.4706C15.84 41.4006 15.84 38.3606 15.84 35.3606C18.33 35.3806 20.83 35.3706 23.32 35.3306C23.32 38.0306 23.32 40.7506 23.32 43.4806C23.32 45.7606 23.07 47.8106 22.57 49.6406C22.06 51.4606 21.31 53.0606 20.3 54.4406C18.34 57.2406 15.46 58.9006 11.66 59.3406ZM28.06 0.840608C30.7 0.820608 33.35 0.810608 35.98 0.820608C35.98 2.74061 35.98 4.64061 35.99 6.56061C35.98 8.49061 35.98 10.4106 35.99 12.3506C35.98 14.2706 35.98 16.2006 35.99 18.1406C35.99 20.0706 35.99 22.0106 35.99 23.9706C35.98 25.9206 35.98 27.8606 35.99 29.8306C35.98 31.7806 35.98 33.7306 35.99 35.7106C35.99 37.6706 35.99 39.6206 35.99 41.5906C35.99 43.5606 35.98 45.5206 35.98 47.4806C38.15 47.2506 40.32 47.0506 42.51 46.8506C44.67 46.6506 46.85 46.4706 49.01 46.2906C49.02 48.7706 49.02 51.2406 49.01 53.7306C47.27 53.9106 45.52 54.0906 43.78 54.2806C42.03 54.4706 40.28 54.6906 38.54 54.9006C36.79 55.1306 35.05 55.3806 33.3 55.6106C31.56 55.8606 29.81 56.1006 28.06 56.3606C28.07 53.9906 28.06 51.6206 28.06 49.2606C28.07 46.8806 28.06 44.5106 28.07 42.1506C28.06 39.7906 28.07 37.4206 28.07 35.0706C28.06 32.7406 28.07 30.4006 28.06 28.0706C28.07 25.7606 28.06 23.4606 28.06 21.1706C28.07 18.8806 28.06 16.6006 28.07 14.3306C28.07 12.0706 28.07 9.81061 28.06 7.56061C28.06 5.32061 28.06 3.07061 28.06 0.840608ZM52.81 0.730608C54.62 0.720608 56.41 0.710608 58.22 0.710608C60.02 0.680608 61.82 0.680608 63.61 0.660608C65.42 0.660608 67.21 0.640608 69.01 0.640608C70.8 0.620608 72.61 0.610608 74.41 0.610608C74.42 3.10061 74.42 5.59061 74.42 8.08061C72.14 8.11061 69.85 8.12061 67.57 8.16061C65.29 8.17061 63.02 8.19061 60.73 8.23061C60.74 10.5506 60.73 12.8606 60.74 15.1906C60.74 17.4806 60.74 19.7906 60.73 22.1206C62.54 22.0606 64.36 22.0106 66.17 21.9606C67.98 21.9206 69.8 21.8806 71.61 21.8406C71.61 24.2806 71.61 26.7406 71.6 29.1706C69.79 29.2406 67.98 29.2906 66.18 29.3606C64.36 29.4206 62.54 29.4806 60.74 29.5706C60.74 32.2106 60.74 34.8606 60.73 37.5206C60.73 40.1406 60.74 42.7706 60.73 45.3906C63.01 45.2306 65.3 45.0806 67.58 44.9306C69.86 44.7806 72.13 44.6406 74.42 44.5206C74.42 46.8806 74.42 49.2206 74.41 51.5706C72.61 51.7006 70.81 51.8406 69.02 51.9806C67.21 52.1106 65.41 52.2706 63.61 52.4106C61.82 52.5706 60.02 52.7106 58.22 52.8806C56.42 53.0306 54.61 53.2006 52.82 53.3706C52.81 51.2206 52.81 49.0606 52.82 46.9106C52.82 44.7406 52.82 42.5606 52.82 40.4006C52.82 38.2106 52.81 36.0306 52.82 33.8406C52.81 31.6406 52.81 29.4506 52.81 27.2506C52.81 25.0406 52.81 22.8406 52.81 20.6306C52.81 18.4306 52.82 16.2206 52.81 14.0006C52.81 11.7906 52.81 9.57061 52.81 7.38061C52.82 5.15061 52.81 2.95061 52.81 0.730608ZM78.98 0.590608C80.86 0.580608 82.74 0.570608 84.63 0.580608C86.51 0.560608 88.4 0.550608 90.28 0.550608C90.7 3.66061 91.12 6.74061 91.54 9.83061C91.96 12.9006 92.37 15.9506 92.79 19.0106C93.21 22.0206 93.64 25.0406 94.05 28.0606C94.48 31.0306 94.9 33.9906 95.31 36.9506C95.35 36.9506 95.4 36.9506 95.46 36.9506C95.88 33.9906 96.29 31.0206 96.71 28.0406C97.13 25.0306 97.56 22.0006 97.98 18.9806C98.4 15.9406 98.81 12.8806 99.23 9.81061C99.66 6.74061 100.07 3.65061 100.5 0.550608C102.38 0.550608 104.27 0.550608 106.16 0.540608C108.04 0.540608 109.93 0.560608 111.81 0.550608C111.81 2.72061 111.81 4.89061 111.8 7.05061C111.81 9.21061 111.8 11.3506 111.8 13.5006C111.81 15.6406 111.81 17.7706 111.81 19.8906C111.81 22.0106 111.81 24.1206 111.81 26.2306C111.81 28.3106 111.81 30.4106 111.81 32.4906C111.81 34.5506 111.8 36.6106 111.8 38.6606C111.81 40.7106 111.81 42.7406 111.81 44.7706C111.81 46.8006 111.8 48.8206 111.81 50.8506C109.3 50.8206 106.81 50.8106 104.32 50.8006C104.32 47.7306 104.32 44.6606 104.32 41.5906C104.32 38.4906 104.32 35.3606 104.31 32.2506C104.31 29.1006 104.32 25.9406 104.31 22.7506C104.32 19.5406 104.31 16.3206 104.32 13.1106C104.27 13.1006 104.21 13.1106 104.18 13.1006C103.7 16.3306 103.22 19.5406 102.74 22.7606C102.26 25.9206 101.78 29.0906 101.29 32.2506C100.82 35.3606 100.34 38.4906 99.86 41.5906C99.38 44.6606 98.9 47.7406 98.41 50.8006C96.2 50.8206 93.99 50.8306 91.78 50.8606C91.31 47.8106 90.83 44.7406 90.35 41.6806C89.86 38.5906 89.39 35.4806 88.91 32.3606C88.43 29.2006 87.94 26.0106 87.47 22.8406C86.99 19.6206 86.51 16.4106 86.03 13.1706C85.98 13.1606 85.93 13.1606 85.88 13.1606C85.88 16.4006 85.88 19.6406 85.88 22.8506C85.89 26.0506 85.89 29.2406 85.88 32.4006C85.89 35.5506 85.89 38.6606 85.88 41.7906C85.88 44.8606 85.88 47.9206 85.88 50.9806C83.57 51.0606 81.27 51.1506 78.98 51.2806C78.98 49.2506 78.98 47.2206 78.98 45.1706C78.98 43.1206 78.97 41.0706 78.97 39.0006C78.98 36.9306 78.97 34.8406 78.97 32.7606C78.98 30.6506 78.98 28.5406 78.97 26.4306C78.98 24.3006 78.98 22.1806 78.97 20.0406C78.98 17.8906 78.97 15.7406 78.98 13.6106C78.97 11.4506 78.97 9.27061 78.98 7.11061C78.98 4.94061 78.97 2.76061 78.98 0.590608ZM117.72 0.580608C119.46 0.570608 121.21 0.580608 122.96 0.590608C124.7 0.590608 126.45 0.600608 128.19 0.610608C129.94 0.630608 131.69 0.630608 133.44 0.650608C135.18 0.650608 136.92 0.670608 138.66 0.670608C138.66 3.19061 138.66 5.70061 138.65 8.21061C136.49 8.18061 134.32 8.14061 132.15 8.13061C129.97 8.11061 127.8 8.09061 125.63 8.07061C125.63 10.4806 125.64 12.8906 125.64 15.2906C125.64 17.6806 125.63 20.0706 125.64 22.4506C127.33 22.4906 129.05 22.5106 130.75 22.5606C132.44 22.5906 134.16 22.6506 135.85 22.6906C135.86 25.1506 135.85 27.6006 135.86 30.0506C134.15 29.9906 132.44 29.9206 130.75 29.8606C129.05 29.8106 127.34 29.7606 125.64 29.7206C125.63 31.5306 125.64 33.3606 125.64 35.1906C125.63 36.9906 125.63 38.8006 125.63 40.6106C125.63 42.4006 125.63 44.1806 125.64 45.9506C125.63 47.7206 125.63 49.4806 125.64 51.2506C123 51.1106 120.36 51.0206 117.71 50.9406C117.71 48.9306 117.72 46.9106 117.72 44.9006C117.71 42.8606 117.72 40.8206 117.72 38.7806C117.71 36.7106 117.72 34.6406 117.72 32.5706C117.71 30.4806 117.72 28.4006 117.72 26.2906C117.72 24.1806 117.72 22.0806 117.72 19.9606C117.72 17.8206 117.71 15.6806 117.71 13.5506C117.72 11.3906 117.71 9.23061 117.71 7.08061C117.72 4.91061 117.71 2.74061 117.72 0.580608ZM142.47 0.710608C145.11 0.730608 147.75 0.730608 150.38 0.750608C150.37 2.66061 150.37 4.56061 150.38 6.46061C150.38 8.36061 150.38 10.2606 150.38 12.1506C150.37 14.0406 150.37 15.9406 150.37 17.8406C150.37 19.7306 150.37 21.6206 150.37 23.5106C150.38 25.4006 150.38 27.2906 150.37 29.1806C150.37 31.0506 150.37 32.9206 150.37 34.8006C150.37 36.6606 150.37 38.5406 150.38 40.4006C150.37 42.2506 150.38 44.1106 150.38 45.9606C152.55 46.1406 154.72 46.3306 156.9 46.5306C159.07 46.7306 161.23 46.9406 163.4 47.1506C163.41 49.7006 163.41 52.2306 163.41 54.7506C161.66 54.5206 159.91 54.3206 158.18 54.1306C156.43 53.9306 154.68 53.7406 152.93 53.5606C151.18 53.3906 149.44 53.2106 147.71 53.0606C145.96 52.8906 144.21 52.7306 142.47 52.5606C142.47 50.4606 142.47 48.3406 142.47 46.2406C142.47 44.1306 142.46 42.0006 142.47 39.8706C142.46 37.7306 142.47 35.6006 142.47 33.4606C142.47 31.3006 142.47 29.1406 142.47 26.9806C142.47 24.7906 142.47 22.6306 142.47 20.4606C142.47 18.2706 142.46 16.0706 142.46 13.9006C142.47 11.7006 142.47 9.50061 142.47 7.30061C142.46 5.10061 142.46 2.91061 142.47 0.710608ZM167.22 0.870608C169.85 0.880608 172.5 0.890608 175.14 0.900608C175.14 3.14061 175.14 5.40061 175.14 7.65061C175.14 9.91061 175.14 12.1906 175.14 14.4606C175.14 16.7506 175.13 19.0206 175.14 21.3306C175.13 23.6206 175.13 25.9506 175.14 28.2606C175.14 30.5906 175.14 32.9306 175.14 35.2806C175.14 37.6106 175.14 39.9706 175.14 42.3406C175.14 44.7006 175.14 47.0506 175.13 49.4106C175.14 51.7606 175.14 54.1106 175.13 56.4606C172.49 56.0306 169.86 55.6306 167.22 55.2506C167.22 53.0206 167.22 50.7706 167.22 48.5206C167.22 46.2406 167.22 43.9706 167.21 41.7006C167.21 39.4106 167.21 37.1206 167.21 34.8406C167.21 32.5606 167.22 30.2806 167.21 28.0006C167.22 25.7206 167.22 23.4406 167.21 21.1706C167.22 18.8906 167.22 16.6306 167.22 14.3706C167.22 12.1106 167.22 9.84061 167.22 7.61061C167.21 5.35061 167.21 3.10061 167.22 0.870608ZM188.05 27.7406C187.33 25.4306 186.59 23.1606 185.87 20.8906C185.15 18.6306 184.42 16.4006 183.7 14.1706C182.96 11.9306 182.23 9.71061 181.52 7.50061C180.79 5.30061 180.05 3.10061 179.34 0.900608C182.12 0.900608 184.91 0.890608 187.69 0.880608C188.58 3.77061 189.47 6.67061 190.36 9.57061C191.23 12.4606 192.13 15.3906 193.02 18.3106C193.05 18.3106 193.1 18.3006 193.17 18.3006C194.07 15.3206 194.98 12.3706 195.9 9.44061C196.8 6.53061 197.72 3.65061 198.63 0.760608C201.13 0.720608 203.62 0.650608 206.13 0.590608C205.4 2.74061 204.67 4.90061 203.94 7.05061C203.22 9.23061 202.49 11.4206 201.77 13.6106C201.03 15.8406 200.3 18.0806 199.58 20.3406C198.85 22.6406 198.12 24.9606 197.4 27.3106C198.17 29.6906 198.93 32.0806 199.7 34.5206C200.45 37.0006 201.23 39.5206 201.99 42.1006C202.75 44.8006 203.52 47.5706 204.28 50.4406C205.04 53.4806 205.8 56.6106 206.55 59.8406C203.76 59.8306 200.98 59.7706 198.21 59.6106C197.73 57.6106 197.24 55.6306 196.77 53.6806C196.28 51.7306 195.81 49.8006 195.33 47.8806C194.84 46.0606 194.37 44.2406 193.89 42.4506C193.41 40.6506 192.92 38.8806 192.45 37.1206C192.39 37.1206 192.33 37.1406 192.3 37.1306C191.8 38.9006 191.31 40.6706 190.82 42.4406C190.33 44.2106 189.84 45.9806 189.34 47.7506C188.85 49.5106 188.36 51.2706 187.87 53.0106C187.38 54.7506 186.89 56.4806 186.4 58.2006C183.9 57.8206 181.4 57.4406 178.9 57.0506C179.67 54.7006 180.43 52.3206 181.2 49.9106C181.95 47.4806 182.71 45.0206 183.48 42.5606C184.24 40.0706 185.01 37.6006 185.77 35.1206C186.52 32.6406 187.29 30.1906 188.05 27.7406Z" fill="#E50914"/>
</svg>
